<svg xmlns="http://www.w3.org/2000/svg" version="1.1" xmlns:xlink="http://www.w3.org/1999/xlink" xmlns:svgjs="http://svgjs.com/svgjs" width="512" height="512" x="0" y="0" viewBox="0 0 490.667 490.667" style="enable-background:new 0 0 512 512" xml:space="preserve" class=""><g>
<path xmlns="http://www.w3.org/2000/svg" style="" d="M490.667,85.333V384c-0.02,11.314-4.505,22.162-12.48,30.187L288,224l-2.987-4.587L490.667,85.333z" fill="#f6b445" data-original="#f6b445"></path>
<path xmlns="http://www.w3.org/2000/svg" style="" d="M478.187,414.187c-8.025,7.975-18.873,12.46-30.187,12.48H42.667  c-11.314-0.02-22.162-4.505-30.187-12.48L202.667,224l2.667-4.16l40,25.493l39.68-25.92L288,224L478.187,414.187z" fill="#f6a645" data-original="#f6a645" class=""></path>
<path xmlns="http://www.w3.org/2000/svg" style="" d="M205.334,219.84l-2.667,4.16L12.48,414.187C4.505,406.162,0.02,395.314,0,384V106.667  c-0.013-4.304,0.634-8.585,1.92-12.693L10.667,96L205.334,219.84z" fill="#f6b445" data-original="#f6b445"></path>
<path xmlns="http://www.w3.org/2000/svg" style="" d="M490.667,85.333l-205.653,134.08l-39.68,25.92l-40-25.493L10.667,96L1.92,93.973  C7.477,76.14,23.988,63.995,42.667,64h394.667C480,64,490.667,85.333,490.667,85.333L490.667,85.333z" fill="#fed049" data-original="#fed049"></path>
<g xmlns="http://www.w3.org/2000/svg">
</g>
<g xmlns="http://www.w3.org/2000/svg">
</g>
<g xmlns="http://www.w3.org/2000/svg">
</g>
<g xmlns="http://www.w3.org/2000/svg">
</g>
<g xmlns="http://www.w3.org/2000/svg">
</g>
<g xmlns="http://www.w3.org/2000/svg">
</g>
<g xmlns="http://www.w3.org/2000/svg">
</g>
<g xmlns="http://www.w3.org/2000/svg">
</g>
<g xmlns="http://www.w3.org/2000/svg">
</g>
<g xmlns="http://www.w3.org/2000/svg">
</g>
<g xmlns="http://www.w3.org/2000/svg">
</g>
<g xmlns="http://www.w3.org/2000/svg">
</g>
<g xmlns="http://www.w3.org/2000/svg">
</g>
<g xmlns="http://www.w3.org/2000/svg">
</g>
<g xmlns="http://www.w3.org/2000/svg">
</g>
</g></svg>
