<svg xmlns="http://www.w3.org/2000/svg" version="1.1" xmlns:xlink="http://www.w3.org/1999/xlink" xmlns:svgjs="http://svgjs.com/svgjs" width="512" height="512" x="0" y="0" viewBox="0 0 128 128" style="enable-background:new 0 0 512 512" xml:space="preserve" class=""><g><path xmlns="http://www.w3.org/2000/svg" id="Login" d="m65.344 68h-38.344c-2.211 0-4-1.789-4-4s1.789-4 4-4h38.344l-9.172-9.172c-1.563-1.563-1.563-4.094 0-5.656s4.094-1.563 5.656 0l16 16c1.563 1.563 1.563 4.094 0 5.656l-16 16c-.781.781-1.805 1.172-2.828 1.172s-2.047-.391-2.828-1.172c-1.563-1.563-1.563-4.094 0-5.656zm25.656-60h-40c-2.211 0-4 1.789-4 4s1.789 4 4 4h40c2.207 0 4 1.793 4 4v88c0 2.207-1.793 4-4 4h-40c-2.211 0-4 1.789-4 4s1.789 4 4 4h40c6.617 0 12-5.383 12-12v-88c0-6.617-5.383-12-12-12z" fill="#000000" data-original="#000000"></path></g></svg>
