<svg xmlns="http://www.w3.org/2000/svg" version="1.1" xmlns:xlink="http://www.w3.org/1999/xlink" xmlns:svgjs="http://svgjs.com/svgjs" width="512" height="512" x="0" y="0" viewBox="0 0 58 58" style="enable-background:new 0 0 512 512" xml:space="preserve" class=""><g><g xmlns="http://www.w3.org/2000/svg" id="Page-1" fill="none" fill-rule="evenodd"><g id="002---Call" fill-rule="nonzero"><path id="Shape" d="m34 53c0 2.7614237-2.2385763 5-5 5h-24c-1.32608245 0-2.59785201-.5267842-3.53553391-1.4644661-.93768189-.9376819-1.46446609-2.2094515-1.46446609-3.5355339v-48c0-2.76142375 2.23857625-5 5-5h24c1.3260824 0 2.597852.5267842 3.5355339 1.46446609.9376819.9376819 1.4644661 2.20945146 1.4644661 3.53553391z" fill="#2fa8cc" data-original="#2fa8cc" class=""></path><path id="Shape" d="m34 5v2s-32.14 0-33.92 46.88c-.05186304-.2904951-.07862846-.5849148-.08-.88v-48c0-2.76142375 2.23857625-5 5-5h24c1.3260824 0 2.597852.5267842 3.5355339 1.46446609.9376819.9376819 1.4644661 2.20945146 1.4644661 3.53553391z" fill="#67b9cc" data-original="#67b9cc"></path><path id="Shape" d="m28 0-2.447 4.894c-.3386882.67778095-1.0313083 1.10597427-1.789 1.106h-13.528c-.7576917-.00002573-1.45031181-.42821905-1.789-1.106l-2.447-4.894z" fill="#3f5c6c" data-original="#3f5c6c"></path><path id="Shape" d="m25 55h-16c-.55228475 0-1-.4477153-1-1s.44771525-1 1-1h16c.5522847 0 1 .4477153 1 1s-.4477153 1-1 1z" fill="#3f5c6c" data-original="#3f5c6c"></path><path id="Shape" d="m20 23-11.474 6.12c-.3234232.1745653-.52502632.5124736-.52502632.88s.20160312.7054347.52502632.88l11.474 6.12v7c0 2.7614237 2.2385763 5 5 5h28c2.7614237 0 5-2.2385763 5-5v-28c0-2.7614237-2.2385763-5-5-5h-28c-2.7614237 0-5 2.2385763-5 5z" fill="#ecf0f1" data-original="#ecf0f1"></path><path id="Shape" d="m51.118 40.106c-2.0403613 1.9370325-4.7698896 2.9788756-7.582 2.894-.9958759-.0025133-1.9887065-.1101091-2.962-.321-3.0966673-.8055646-5.8967221-2.4837926-8.067-4.835-.226-.233-.44-.459-.666-.685s-.453-.44-.686-.667c-2.3512074-2.1702779-4.0294354-4.9703327-4.835-8.067-.8-3.69-.163-7.809 2.572-10.544 1.1737871-1.1731656 3.0762129-1.1731656 4.25 0l2.858 2.86c.5648636.5629056.8823657 1.3275456.8823657 2.125s-.3175021 1.5620944-.8823657 2.125l-1.987 1.987c-.4340211.4298241-.4948545 1.1099759-.144 1.61.9076413 1.2551412 1.9081122 2.4404636 2.993 3.546 1.1058361 1.0845586 2.291133 2.085008 3.546 2.993.4999455.3504479 1.179764.2891839 1.609-.145l1.987-1.987c.5629056-.5648636 1.3275456-.8823657 2.125-.8823657s1.5620944.3175021 2.125.8823657l2.861 2.861c.5652611.5625068.8833031 1.3269227.883866 2.1243772.0005629.7974544-.3163996 1.5623186-.880866 2.1256228z" fill="#4fba6f" data-original="#4fba6f"></path></g></g></g></svg>
