<svg xmlns="http://www.w3.org/2000/svg" version="1.1" xmlns:xlink="http://www.w3.org/1999/xlink" xmlns:svgjs="http://svgjs.com/svgjs" width="512" height="512" x="0" y="0" viewBox="0 0 504.5 469.2" style="enable-background:new 0 0 512 512" xml:space="preserve" class=""><g><g xmlns="http://www.w3.org/2000/svg" id="Layer_21"><g><path d="m465.2 102.4h12v67h-12z" fill="#5e5e5e" data-original="#5e5e5e"></path><path d="m504.5 265.8-20.7-51.3c12.2-7 16.4-22.5 9.5-34.7s-22.5-16.4-34.7-9.5-16.4 22.5-9.5 34.7c2.3 3.9 5.5 7.2 9.5 9.5l-20.6 51.3z" fill="#fdc00f" data-original="#fdc00f"></path><path d="m385.6 141.4v166.5c-89.5 54.2-202.2 52.2-289.8-5v-161.5z" fill="#191919" data-original="#191919"></path><path d="m471.2 102.4-226.2 102.3-226.1-102.3 226.1-102.4 97.9 44.3 14 6.3z" fill="#262626" data-original="#262626"></path><g fill="#5e5e5e"><path d="m356.9 50.6-89.4 45.8-5.5-10.7 80.9-41.4z" fill="#5e5e5e" data-original="#5e5e5e"></path><path d="m132.9 115.1-32.6-18.7 5.3-10.7 32.6 18.7z" fill="#5e5e5e" data-original="#5e5e5e"></path><path d="m185.8 90.4h42.2v12h-42.2z" transform="matrix(.861 -.509 .509 .861 -20.255 118.769)" fill="#5e5e5e" data-original="#5e5e5e"></path></g><circle cx="251" cy="99.8" fill="#191919" r="21.1" data-original="#191919"></circle><path d="m206.7 48.5-17.9 58.7c-5.6-1-11.3-1.5-17-1.5h-14.7c-8.2 0-16.4 1-24.4 3.1l-15.8-60.4c-.6-1.9.5-3.8 2.4-4.4.3-.1.6-.1.9-.1h83.2c1.9 0 3.5 1.6 3.5 3.5 0 .4-.1.8-.2 1.1z" fill="#c3996b" data-original="#c3996b"></path><path d="m271.7 341.7h-216.6c-7.5 0-12.2-7.7-8.7-14l11.4-20.7 7.1-117.5c2.9-47.1 43.3-83.8 92.2-83.8h14.7c49.3 0 89.9 37.3 92.2 84.9l5.9 119.9 9.5 19.5c2.7 5.4-1.4 11.7-7.7 11.7z" fill="#c3996b" data-original="#c3996b"></path><path d="m271.7 341.7h-216.6c-7.5 0-12.2-7.7-8.7-14l8.6-15.6c7.5 1.5 15.1 2.3 22.8 2.3 80.7 0 146.1-85.9 147.3-192.4 22.4 15.4 37.5 40.1 38.9 68.6l5.9 119.9 9.5 19.5c2.7 5.4-1.4 11.7-7.7 11.7z" fill="#b2875b" data-original="#b2875b"></path><path d="m173.1 250.5h-46.5c-3.3 0-6-2.7-6-6s2.7-6 6-6h46.5c7.6 0 13.8-5.6 13.8-12.3v-2.7c0-6.8-6.2-12.3-13.8-12.3h-26.7c-14.2 0-25.8-10.9-25.8-24.3v-2.7c0-13.4 11.6-24.3 25.8-24.3h46.5c3.3 0 6 2.7 6 6s-2.7 6-6 6h-46.5c-7.6 0-13.8 5.5-13.8 12.3v2.7c0 6.8 6.2 12.3 13.8 12.3h26.7c14.2 0 25.8 10.9 25.8 24.3v2.7c0 13.4-11.6 24.3-25.8 24.3z" fill="#5e5e5e" data-original="#5e5e5e"></path><path d="m161.8 269.8c-3.3 0-6-2.7-6-6v-121.2c0-3.3 2.7-6 6-6s6 2.7 6 6v121.2c0 3.3-2.7 6-6 6z" fill="#5e5e5e" data-original="#5e5e5e"></path><circle cx="74.5" cy="259.9" fill="#ffbb26" r="67.9" data-original="#ffbb26"></circle><path d="m142.3 259.9c-.1 37.5-30.6 67.8-68.1 67.7-27.4-.1-52-16.6-62.5-41.8 38.2 12.1 78.9-9 91-47.2 2.2-7 3.4-14.4 3.4-21.8 0-6.1-.8-12.2-2.3-18.1 23.5 11.3 38.5 35.1 38.5 61.2z" fill="#f2b10c" data-original="#f2b10c"></path><path d="m40 259.9h-12c0-19.9 12.7-37.7 31.6-44l3.8 11.3c-14 4.8-23.4 17.9-23.4 32.7z" fill="#5e5e5e" data-original="#5e5e5e"></path><path d="m96.6 300.8-5.7-10.5c11.1-6.1 18.1-17.7 18.1-30.4h12c0 17.1-9.4 32.8-24.4 40.9z" fill="#5e5e5e" data-original="#5e5e5e"></path><path d="m406.9 314.3s-76.4-17.1-162.6 16.8c-17.4 6.8-69.5 20.4-69.5 20.4s-103.2-34.3-141.2-42.8c-29.8-6.7-50.2 39.1-15.1 55.8l218.8 100.4 179.1 4.3" fill="#efcdb1" data-original="#efcdb1"></path><path d="m409.2 363.7 7.2 105.5-179.1-4.3-132.3-63.5c19.4 3.9 82.8 21.2 103.2 24.1 120.2 16.8 162.8-12 201-61.8z" fill="#d8b49a" data-original="#d8b49a"></path><path d="m306.6 413.5c-35.8-4.2-56-38.7-61.3-46.6-2-2.9-5.2-4.8-8.7-5.1l-57.3-5.2c-20-2-27.2-17.5-24.5-34.4s17.3-23.9 28.9-22.7l96.1 6.1s41.9-10.3 62.7-9.8c33.8.8 64.4 18.5 64.4 18.5" fill="#efcdb1" data-original="#efcdb1"></path><path d="m194.8 343.6c-1.4 0-2.8-.5-3.8-1.4-2.5-2.1-2.9-5.9-.8-8.4 2.8-3.5 3.1-8.3.8-12.1-2-2.7-1.4-6.4 1.2-8.4s6.4-1.4 8.4 1.2c.1.2.3.4.4.6 5.2 8.2 4.6 18.8-1.5 26.4-1.2 1.4-2.9 2.1-4.7 2.1z" fill="#d8b49a" data-original="#d8b49a"></path><path d="m493.4 426-34 41.1-45.3 2.1-7.2-154.9 45.2-2.1z" fill="#02648e" data-original="#02648e"></path><circle cx="443.7" cy="413.5" fill="#f1f2f2" r="12" data-original="#f1f2f2"></circle><path d="m401 320.3c-1.1 0-2.1-.3-3-.8-.3-.2-29.8-16.9-61.6-17.7-19.7-.5-60.7 9.5-61.1 9.6-3.2.8-6.5-1.2-7.3-4.4s1.2-6.5 4.4-7.3c1.8-.4 43-10.5 64.3-9.9 35 .8 66 18.5 67.3 19.3 2.8 1.7 3.8 5.3 2.2 8.2-1.1 1.8-3.1 2.9-5.2 3z" fill="#d8b49a" data-original="#d8b49a"></path><path d="m300.6 419.5h-.7c-36.3-4.2-57.5-36.7-64.5-47.4l-1.1-1.8c-1-1.4-2.5-2.3-4.2-2.5l-57.2-5.1c-3.3-.3-5.8-3.2-5.5-6.5s3.2-5.8 6.5-5.5l57.3 5.2c5.3.5 10.1 3.4 13.1 7.8l1.2 1.8c6.2 9.5 25.1 38.5 55.8 42.1 3.3.2 5.8 3 5.6 6.4s-3 5.8-6.4 5.6z" fill="#d8b49a" data-original="#d8b49a"></path></g></g></g></svg>
